<?xml version="1.0" encoding="utf-8"?>
<!-- Generator: Adobe Illustrator 15.0.0, SVG Export Plug-In . SVG Version: 6.00 Build 0)  -->
<!DOCTYPE svg PUBLIC "-//W3C//DTD SVG 1.1//EN" "http://www.w3.org/Graphics/SVG/1.1/DTD/svg11.dtd">
<svg version="1.1" id="Ebene_1" xmlns="http://www.w3.org/2000/svg" xmlns:xlink="http://www.w3.org/1999/xlink" x="0px" y="0px"
	 width="1263.482px" height="1094.699px" viewBox="0 0 1263.482 1094.699" enable-background="new 0 0 1263.482 1094.699"
	 xml:space="preserve">
<g id="Ebene_1_1_">
	<g id="font-awesome_x5F_4-7-0_x5F_cloud_x5F_1024_x5F_0_x5F_000000_x5F_none_xA0_Bild_1_">
		<g>
			<path fill="#888888" d="M634,0c9,0,18,0,27,0c124.248,11.42,196.52,74.813,239,168c19.565-12.188,42.555-28.231,74-31
				c86.461-7.606,158.496,57.313,152,148c-1.811,25.257-10.672,43.371-21,62.002c90.688,25.646,147.442,85.224,158,190.999
				c0,5.331,0,10.666,0,16c-11.896,115.104-76.027,177.973-184,197c-208.005,0-415.993,0-624,0
				c-124.309-19.689-196.31-91.691-216-216c0-14.669,0-29.334,0-44c7.86-78.937,53.644-144.643,107-179
				c6.141-3.954,27.695-11.212,30-18.001c2.813-8.287-1.381-23.962-1-33c3.186-75.597,33.18-131.021,71-172
				C489.495,41.87,549.279,5.656,634,0z"/>
		</g>
	</g>
	<g id="font-awesome_x5F_4-7-0_x5F_eye_x5F_1024_x5F_0_x5F_000000_x5F_none_xA0_Bild_1_">
		<g>
			<path fill="#FFFFFF" d="M423.358,257.269c19.84-2.384,40.073,0.601,40.213,22.341c0.036,5.676-6.229,18.477-12.288,21.227
				c-7.606,3.448-16.005,1.304-23.458,2.231c-42.981,5.365-83.939,39.61-89.363,84.896c-2.445,20.425-1.694,41.819-24.574,41.331
				c-32.211-0.692-23.358-50.577-13.405-77.075C319.536,301.497,364.521,264.339,423.358,257.269z"/>
			<path fill="#FFFFFF" d="M632.244,297.482c77.653,36.287,137.672,99.883,185.429,169.79
				c-36.065,56.701-81.5,105.293-137.396,144.098c-68.193,47.344-151.861,83.275-272.558,75.959
				c-84.074-5.098-150.858-37.649-206.652-75.959C144.451,572.497,97.75,523.643,63.672,467.272
				c46.333-71.7,106.314-129.752,183.194-170.907c-9.139,24.919-20.125,43.479-24.575,69.256
				c-15.687,90.886,24.866,165.814,74.841,208.891c36.588,31.53,87.949,55.599,157.503,51.382
				c105.633-6.402,196.422-89.865,205.536-194.364C665.18,374.095,652.116,331.948,632.244,297.482z"/>
			<path fill="#FFFFFF" d="M0,481.796c0-8.938,0-17.874,0-26.812c17.435-43.583,48.641-77.63,80.427-111.704
				c73.913-79.236,193.394-148.595,329.527-158.619c20.479,0,40.958,0,61.437,0c0,0.372,0,0.744,0,1.116
				c146.085,11.007,249.611,77.586,330.646,158.62c32.993,32.993,61.14,68.906,79.311,113.938c0,6.328,0,12.66,0,18.989
				c-0.372,0-0.745,0-1.115,0c-11.301,39.591-45.414,80.548-71.489,108.354c-79.403,84.662-185.259,149.048-328.416,165.322
				c-26.812,0-53.618,0-80.427,0c-142.534-17.354-247.601-79.063-326.175-164.204c-12.428-13.469-25.177-28.264-36.863-44.684
				C21.911,521.104,8.368,506.382,0,481.796z M300.484,352.219c-9.953,26.499-18.806,76.383,13.405,77.073
				c22.88,0.49,22.129-20.903,24.574-41.329c5.424-45.284,46.382-79.53,89.363-84.896c7.453-0.931,15.852,1.217,23.458-2.234
				c6.059-2.75,12.323-15.547,12.288-21.224c-0.14-21.74-20.373-24.727-40.213-22.341
				C364.521,264.339,319.536,301.497,300.484,352.219z M660.171,431.527c-9.113,104.499-99.901,187.961-205.536,194.364
				c-69.554,4.217-120.915-19.85-157.503-51.382c-49.975-43.073-90.528-118.005-74.841-208.891
				c4.449-25.776,15.436-44.337,24.575-69.256c-76.879,41.155-136.861,99.208-183.194,170.907
				c34.078,56.371,80.779,105.226,137.395,144.098c55.794,38.31,122.578,70.861,206.652,75.959
				c120.697,7.316,204.365-28.615,272.561-75.959c55.896-38.805,101.324-87.396,137.396-144.098
				c-47.757-69.907-107.772-133.503-185.429-169.79C652.116,331.948,665.18,374.095,660.171,431.527z"/>
		</g>
		<g>
			<path fill="#FFFFFF" d="M424,280c17.762-2.136,35.877,0.537,36,20.002c0.032,5.078-5.577,16.536-11,19
				c-6.809,3.09-14.328,1.165-21,2c-38.479,4.803-75.145,35.46-80,76c-2.19,18.282-1.517,37.438-22,37
				c-28.836-0.62-20.911-45.278-12-69C331.056,319.595,371.327,286.33,424,280z"/>
			<path fill="#FFFFFF" d="M611,316.002c69.517,32.481,123.247,89.415,166,152c-32.289,50.76-72.96,94.261-123,128.999
				c-61.048,42.382-135.95,74.551-244,68c-75.266-4.563-135.053-33.707-185-68c-50.685-34.801-92.492-78.535-123-129
				c41.479-64.188,95.176-116.156,164-153c-8.181,22.309-18.017,38.923-22,62c-14.044,81.358,22.261,148.439,67,187
				c32.755,28.229,78.733,49.772,141,46c94.565-5.731,175.842-80.45,184-174C640.484,384.588,628.79,346.855,611,316.002z"/>
			<path d="M45,481.002c0-8,0-16,0-24c15.607-39.018,43.545-69.496,72-100C183.168,286.065,290.13,223.975,412,215
				c18.333,0,36.667,0,55,0c0,0.333,0,0.667,0,1c130.778,9.854,223.457,69.457,296,142.002c29.536,29.533,54.733,61.687,71,102
				c0,5.665,0,11.33,0,17c-0.333,0-0.667,0-1,0c-10.115,35.438-40.656,72.105-64,96.999c-71.077,75.788-165.842,133.432-294,148
				c-24,0-48,0-72,0c-127.6-15.535-221.658-70.779-292-147c-11.126-12.058-22.539-25.302-33-40
				C64.615,516.191,52.491,503.011,45,481.002z M314,365.002c-8.911,23.722-16.836,68.38,12,69c20.483,0.438,19.81-18.718,22-37
				c4.855-40.54,41.521-71.197,80-76c6.672-0.835,14.191,1.09,21-2c5.423-2.464,11.032-13.922,11-19
				c-0.123-19.465-18.238-22.138-36-20.002C371.327,286.33,331.056,319.595,314,365.002z M636,436.002
				c-8.158,93.549-89.435,168.268-184,173.999c-62.267,3.772-108.245-17.771-141-46c-44.739-38.561-81.044-105.642-67-187
				c3.983-23.077,13.819-39.691,22-62c-68.824,36.844-122.521,88.813-164,153c30.508,50.465,72.315,94.199,123,129
				c49.947,34.293,109.734,63.438,185,68c108.05,6.551,182.952-25.618,244-68c50.04-34.738,90.711-78.239,123-129
				c-42.753-62.584-96.483-119.518-166-152C628.79,346.855,640.484,384.588,636,436.002z"/>
		</g>
	</g>
	<g id="CELIDON">
		<g enable-background="new    ">
			<path d="M189.2,940.201c-0.403,10.002-2.452,19.103-6.15,27.3c-3.703,8.202-8.653,15.502-14.85,21.899
				c-6.403,6.402-14.602,11.803-24.601,16.199c-10.003,4.397-20.803,6.602-32.399,6.602c-10.8,0-21.202-1.903-31.2-5.7
				c-10.003-3.798-18.802-9.496-26.4-17.101c-5.803-5.598-10.453-11.746-13.95-18.449c-3.501-6.698-6.202-13.75-8.1-21.149
				c-1.903-7.396-3.15-15.15-3.75-23.25c-0.6-8.101-0.9-16.351-0.9-24.75c0-8.4,0.3-16.65,0.9-24.75
				c0.6-8.101,1.847-15.85,3.75-23.25c1.898-7.396,4.599-14.447,8.1-21.15c3.497-6.698,8.147-12.848,13.95-18.449
				c7.598-7.6,16.397-13.299,26.4-17.101c9.999-3.797,20.4-5.7,31.2-5.7c11.597,0,22.35,2.053,32.25,6.15
				c9.899,4.102,18.047,9.352,24.45,15.75c6.196,6.401,11.146,13.604,14.85,21.6c3.698,8.002,5.747,17.002,6.15,27h-27.6
				c-0.201-5.799-1.35-11.198-3.45-16.199c-2.1-4.998-4.852-9.498-8.25-13.5c-4.199-4.6-9.6-8.35-16.2-11.25
				c-6.6-2.896-14.001-4.351-22.2-4.351c-7.2,0-14.152,1.401-20.85,4.2c-6.703,2.803-12.652,6.801-17.85,12
				c-4.401,4.604-7.8,9.703-10.2,15.3c-2.4,5.602-4.2,11.452-5.4,17.55c-1.2,6.104-1.903,12.254-2.1,18.45
				c-0.201,6.202-0.3,12.103-0.3,17.7c0,5.602,0.099,11.502,0.3,17.699c0.197,6.2,0.9,12.352,2.1,18.45c1.2,6.103,3,12,5.4,17.699
				c2.4,5.699,5.799,10.754,10.2,15.15c5.198,5.203,11.147,9.2,17.85,12c6.698,2.803,13.65,4.2,20.85,4.2
				c8.198,0,15.646-1.548,22.35-4.65c6.698-3.098,12.15-6.945,16.351-11.549c3.398-3.998,6.149-8.648,8.25-13.951
				c2.1-5.297,3.248-10.846,3.449-16.648L189.2,940.201L189.2,940.201z"/>
			<path d="M231.196,1008.001V795.302h142.2v24.6h-115.5v64.801h101.399V909.9H257.896v73.5h115.5v24.601H231.196z"/>
			<path d="M418.696,1008.001V795.302h26.701V983.1h102.3v24.9H418.696L418.696,1008.001z"/>
			<path d="M581.894,1008.001V795.302h27.301v212.699H581.894z"/>
			<path d="M826.39,901.501c0,7.604-0.352,15.301-1.05,23.1c-0.703,7.801-2.002,15.352-3.899,22.65
				c-1.903,7.303-4.65,14.303-8.25,21c-3.601,6.702-8.303,12.854-14.101,18.45c-7.604,7.199-16.2,12.554-25.801,16.05
				c-9.6,3.502-19.604,5.25-30,5.25h-74.1V795.302h74.1c10.396,0,20.4,1.8,30,5.399c9.601,3.601,18.197,9,25.801,16.199
				c5.798,5.603,10.5,11.7,14.101,18.301c3.6,6.601,6.347,13.552,8.25,20.851c1.897,7.303,3.196,14.803,3.899,22.5
				C826.038,886.253,826.39,893.902,826.39,901.501z M799.39,901.501c0-5.597-0.149-11.446-0.449-17.55
				c-0.301-6.1-1.103-12.047-2.4-17.851c-1.303-5.798-3.149-11.399-5.55-16.8c-2.399-5.4-5.7-10.3-9.899-14.7
				c-5.002-4.997-10.801-8.7-17.399-11.102c-6.601-2.398-13.401-3.6-20.4-3.6H695.89v163.5h47.399c6.999,0,13.801-1.199,20.4-3.6
				c6.599-2.401,12.397-6.101,17.399-11.101c4.199-4.2,7.5-9,9.899-14.399c2.399-5.4,4.247-11.049,5.55-16.951
				c1.299-5.896,2.101-11.896,2.4-18C799.239,913.253,799.39,907.302,799.39,901.501z"/>
			<path d="M1027.385,901.802c0,8.399-0.352,16.649-1.05,24.75c-0.703,8.1-2.001,15.854-3.899,23.25
				c-1.902,7.399-4.649,14.451-8.25,21.149c-3.601,6.703-8.302,12.853-14.101,18.449c-7.603,7.604-16.35,13.303-26.25,17.101
				c-9.899,3.797-20.25,5.7-31.05,5.7s-21.15-1.903-31.05-5.7c-9.9-3.798-18.651-9.496-26.25-17.101
				c-5.805-5.598-10.5-11.746-14.102-18.449c-3.6-6.698-6.352-13.75-8.25-21.149c-1.901-7.396-3.201-15.15-3.898-23.25
				c-0.703-8.101-1.051-16.351-1.051-24.75c0-8.4,0.348-16.65,1.051-24.75c0.697-8.101,1.997-15.85,3.898-23.25
				c1.898-7.396,4.65-14.447,8.25-21.15c3.602-6.698,8.297-12.848,14.102-18.449c7.599-7.6,16.35-13.299,26.25-17.101
				c9.898-3.797,20.25-5.7,31.05-5.7s21.149,1.903,31.05,5.7c9.9,3.802,18.647,9.501,26.25,17.101
				c5.799,5.603,10.5,11.751,14.101,18.449c3.601,6.703,6.348,13.754,8.25,21.15c1.898,7.4,3.196,15.149,3.899,23.25
				C1027.033,885.15,1027.385,893.4,1027.385,901.802z M999.785,901.802c0-5.599-0.15-11.498-0.45-17.7
				c-0.3-6.196-1.05-12.347-2.25-18.45c-1.2-6.098-3-11.948-5.399-17.55c-2.399-5.597-5.804-10.696-10.199-15.3
				c-5.203-5.199-11.151-9.15-17.852-11.851c-6.703-2.7-13.648-4.051-20.85-4.051s-14.151,1.351-20.851,4.051
				c-6.702,2.699-12.651,6.65-17.851,11.851c-4.401,4.604-7.8,9.703-10.2,15.3c-2.398,5.602-4.199,11.452-5.398,17.55
				c-1.2,6.104-1.95,12.254-2.25,18.45c-0.301,6.202-0.45,12.103-0.45,17.7c0,5.602,0.149,11.502,0.45,17.699
				c0.3,6.2,1.05,12.352,2.25,18.45c1.199,6.103,3,12,5.398,17.699c2.4,5.699,5.799,10.754,10.2,15.15
				c5.198,5.203,11.146,9.149,17.851,11.85c6.698,2.699,13.649,4.051,20.851,4.051s14.146-1.352,20.85-4.051
				c6.699-2.699,12.647-6.646,17.852-11.85c4.396-4.396,7.8-9.451,10.199-15.15s4.199-11.598,5.399-17.699
				c1.2-6.1,1.95-12.25,2.25-18.45C999.635,913.302,999.785,907.402,999.785,901.802z"/>
			<path d="M1203.484,1008.001l-104.4-171v171h-25.8V795.302h30l104.399,171.6v-171.6h25.801v212.699H1203.484z"/>
		</g>
	</g>
</g>
</svg>
