<?xml version="1.0" encoding="utf-8"?>
<!-- Generator: Adobe Illustrator 15.0.0, SVG Export Plug-In . SVG Version: 6.00 Build 0)  -->
<!DOCTYPE svg PUBLIC "-//W3C//DTD SVG 1.1//EN" "http://www.w3.org/Graphics/SVG/1.1/DTD/svg11.dtd">
<svg version="1.1" id="Ebene_2" xmlns="http://www.w3.org/2000/svg" xmlns:xlink="http://www.w3.org/1999/xlink" x="0px" y="0px"
	 width="487.816px" height="70.392px" viewBox="0 0 487.816 70.392" enable-background="new 0 0 487.816 70.392"
	 xml:space="preserve">
<g>
	<g id="CNI_Logo">
		<g>
			<defs>
				<rect id="SVGID_1_" x="426.761" y="13.34" width="53.111" height="54.052"/>
			</defs>
			<clipPath id="SVGID_2_">
				<use xlink:href="#SVGID_1_"  overflow="visible"/>
			</clipPath>
			<path clip-path="url(#SVGID_2_)" fill="#80BA27" d="M458.777,34.027l-0.021,7.635l-4.072-7.635h-3.201v11.17h2.754v-7.612
				l4.025,7.612l3.271,0.023V34.027H458.777z M464.359,34.027v11.17h2.85v-11.17H464.359z M445.007,33.839l-0.59,0.07l-0.566,0.093
				l-0.516,0.142l-0.494,0.166l-0.447,0.213l-0.424,0.234l-0.4,0.283l-0.377,0.33l-0.307,0.354l-0.281,0.33l-0.236,0.376
				l-0.236,0.378l-0.141,0.33l-0.117,0.306l-0.119,0.329l-0.068,0.308l-0.049,0.354l-0.047,0.352v0.402l-0.021,0.444v0.332
				l0.021,0.283v0.26l0.023,0.209l0.072,0.425l0.047,0.234l0.07,0.262l0.072,0.164l0.07,0.211l0.213,0.449l0.092,0.213l0.117,0.189
				l0.119,0.188l0.117,0.162l0.188,0.236l0.211,0.234l0.215,0.217l0.234,0.209l0.258,0.189l0.234,0.189l0.26,0.162l0.283,0.143
				l0.234,0.117l0.262,0.096l0.281,0.096l0.307,0.094l0.613,0.141l0.326,0.045l0.283,0.025l0.521,0.047h0.516l0.516-0.047
				l0.496-0.07l0.496-0.092l0.447-0.117l0.469-0.146l0.445-0.186l0.354-0.164v-2.193l-0.02-0.07v-0.025h-0.025l-0.047,0.049
				l-0.092,0.047l-0.121,0.07l-0.279,0.166l-0.334,0.164l-0.279,0.117l-0.309,0.117l-0.328,0.096l-0.307,0.094l-0.328,0.051
				l-0.283,0.021l-0.307,0.023h-0.307l-0.281-0.023l-0.283-0.049l-0.281-0.047l-0.262-0.096l-0.258-0.092l-0.234-0.117l-0.213-0.143
				l-0.188-0.166l-0.209-0.188l-0.17-0.234l-0.162-0.215l-0.164-0.258l-0.117-0.232l-0.096-0.262l-0.096-0.377l-0.07-0.399
				l-0.047-0.402l-0.021-0.426l0.021-0.422l0.047-0.425l0.07-0.376l0.096-0.376l0.143-0.332l0.162-0.33l0.189-0.283l0.26-0.281
				l0.234-0.236l0.283-0.188l0.33-0.163l0.305-0.142l0.234-0.049l0.234-0.071l0.236-0.024l0.26-0.021h0.518l0.262,0.021l0.258,0.024
				l0.258,0.071l0.26,0.049l0.518,0.188l0.543,0.234l0.492,0.262l0.121,0.07l0.092,0.047l0.047,0.047h0.025v-0.024l0.02-0.069V34.64
				l-0.354-0.166l-0.418-0.162l-0.449-0.167l-0.447-0.118l-0.473-0.095l-0.469-0.068l-0.496-0.024l-0.471-0.024L445.007,33.839z
				 M454.378,13.34l-0.73,0.022l-0.73,0.024l-0.709,0.021l-0.727,0.071l-0.707,0.07l-0.707,0.096l-0.705,0.117l-0.709,0.119
				l-0.68,0.14l-0.705,0.166l-0.686,0.188l-0.658,0.188l-0.682,0.213l-0.662,0.236l-0.68,0.234l-0.639,0.262l-0.635,0.28
				l-0.635,0.284l-0.637,0.305l-0.635,0.332l-0.613,0.326l-0.586,0.357l-0.611,0.373l-0.568,0.402l-0.563,0.38l-0.566,0.419
				l-0.564,0.429l-1.039,0.893l-0.961,0.922l-0.943,0.966l-0.871,1.011l-0.824,1.038l-0.754,1.084l-0.354,0.542l-0.35,0.566
				l-0.334,0.589l-0.326,0.566l-0.283,0.589l-0.305,0.589l-0.262,0.612l-0.258,0.613l-0.26,0.609l-0.234,0.639l-0.213,0.637
				l-0.188,0.634l-0.189,0.66l-0.162,0.659l-0.17,0.659l-0.139,0.662l-0.096,0.659l-0.117,0.682l-0.092,0.684l-0.07,0.684v0.212
				l-0.025,0.213l-0.023,0.236v0.259l-0.025,0.284v0.869l-0.021,0.591v0.589l0.021,0.258v0.684l0.074,0.85l0.07,0.824l0.092,0.801
				l0.143,0.803l0.141,0.777l0.166,0.775l0.189,0.754l0.209,0.779l0.191,0.656l0.209,0.639l0.234,0.637l0.262,0.635l0.26,0.637
				l0.283,0.635l0.305,0.613l0.33,0.613l0.303,0.588l0.355,0.588l0.352,0.568l0.4,0.588l0.777,1.084l0.424,0.541l0.426,0.498
				l0.445,0.566l0.494,0.514l0.496,0.496l0.518,0.496l0.516,0.494l0.52,0.473l0.541,0.422l0.566,0.449l0.564,0.426l0.566,0.4
				l0.588,0.375l0.59,0.379l0.588,0.352l0.613,0.354l0.635,0.307l0.609,0.332l0.637,0.279l0.66,0.283l0.635,0.236l0.658,0.26
				l0.66,0.211l0.682,0.213l0.686,0.211l0.682,0.166l0.705,0.139l0.705,0.145l0.707,0.143l0.707,0.092l0.707,0.096l0.729,0.068
				l0.73,0.049l0.73,0.021l0.684,0.025h0.682l0.684-0.025l0.682-0.021l0.658-0.049l0.684-0.068l0.682-0.096l0.66-0.117l0.66-0.117
				l0.682-0.145l0.658-0.139l0.66-0.166l0.658-0.188l1.318-0.426l0.635-0.236l0.426-0.164l0.426-0.188l0.893-0.379l0.848-0.396
				l0.424-0.213l0.4-0.213l0.377-0.213l0.375-0.188l0.33-0.213l0.332-0.188l0.281-0.191l0.234-0.162l0.213-0.164l0.166-0.145
				l0.137-0.139l0.121-0.143l0.117-0.141l0.072-0.096l0.117-0.283l0.092-0.303l0.07-0.285v-0.307l-0.021-0.307l-0.07-0.305
				l-0.117-0.283l-0.143-0.281l-0.191-0.215l-0.209-0.209l-0.213-0.168l-0.234-0.119l-0.283-0.092l-0.258-0.072l-0.283-0.023
				l-0.283,0.023l-0.139,0.025l-0.119,0.047l-0.164,0.045l-0.143,0.072l-0.188,0.094l-0.213,0.096l-0.213,0.139l-0.279,0.166
				l-0.568,0.33l-0.564,0.33l-0.564,0.307l-0.588,0.281l-0.611,0.287l-0.588,0.256l-0.613,0.236l-0.613,0.234l-0.635,0.213
				l-0.635,0.189l-0.637,0.164l-0.635,0.164l-0.635,0.145l-0.635,0.117l-0.637,0.094l-0.639,0.094l-0.916,0.07l-0.941,0.047h-0.965
				l-0.967-0.025l-0.967-0.045l-0.963-0.117l-0.92-0.117l-0.914-0.166l-0.66-0.143l-0.613-0.164l-0.639-0.166l-0.611-0.188
				l-0.609-0.213l-0.592-0.209l-0.588-0.262l-0.59-0.234l-0.564-0.283l-0.563-0.283l-0.564-0.309l-0.541-0.326l-0.543-0.332
				l-0.518-0.352l-0.518-0.355l-0.494-0.375l-0.211-0.166l-0.215-0.188l-0.469-0.402l-0.471-0.424l-0.473-0.445l-0.471-0.451
				l-0.422-0.445l-0.4-0.424l-0.189-0.213l-0.166-0.211l-0.375-0.471l-0.4-0.496l-0.355-0.52l-0.35-0.494l-0.334-0.543l-0.326-0.518
				l-0.283-0.541l-0.305-0.52l-0.262-0.564l-0.256-0.543l-0.238-0.566l-0.234-0.566l-0.211-0.588l-0.191-0.586l-0.184-0.588
				l-0.143-0.617l-0.117-0.447l-0.098-0.424l-0.188-0.893l-0.07-0.449l-0.07-0.473l-0.045-0.494l-0.072-0.518v-0.213l-0.025-0.211
				l-0.02-0.283v-0.566L431,41.025v-1.293l0.025-0.308v-0.589l0.02-0.259l0.025-0.215v-0.21l0.072-0.613l0.092-0.589l0.07-0.591
				l0.117-0.542l0.094-0.563l0.145-0.521l0.141-0.564l0.164-0.542l0.309-0.942l0.371-0.967l0.404-0.917l0.445-0.922l0.496-0.915
				l0.541-0.874l0.563-0.825l0.588-0.823l0.518-0.635l0.521-0.591l0.564-0.611l0.588-0.566l0.613-0.566l0.609-0.542l0.658-0.495
				l0.686-0.496l0.66-0.443l0.707-0.45l0.73-0.425l0.727-0.377l0.754-0.376l0.777-0.332l0.775-0.305l0.775-0.283l0.711-0.213
				l0.684-0.185l0.68-0.19l0.73-0.166l0.705-0.118l0.732-0.117l0.777-0.116l0.822-0.074l0.188-0.022h0.234l0.236-0.024h0.283
				l0.328-0.023h1.697l0.33,0.023h0.305l0.283,0.024h0.26l0.236,0.022h0.188l1.059,0.145l1.061,0.188l0.986,0.188l0.99,0.261
				l0.941,0.281l0.941,0.328l0.92,0.377l0.918,0.45l1.033,0.542l0.967,0.566l0.965,0.634l0.895,0.684l0.848,0.73l0.826,0.776
				l0.799,0.85l0.729,0.87l0.402,0.52l0.373,0.496l0.332,0.495l0.33,0.54l0.307,0.52l0.283,0.519l0.279,0.538l0.236,0.546
				l0.238,0.542l0.184,0.542l0.189,0.589l0.166,0.588l0.141,0.567l0.117,0.612l0.117,0.612l0.096,0.61l0.07,0.613l0.047,0.591
				l0.025,0.612l0.025,0.589l-0.025,0.613v0.588l-0.047,0.566l-0.047,0.589L475.4,39.8l-0.094,0.566l-0.119,0.566l-0.117,0.516
				l-0.139,0.52l-0.145,0.496l-0.162,0.471l-0.189,0.471l-0.213,0.473l-0.234,0.445l-0.234,0.447l-0.285,0.404l-0.281,0.422
				l-0.33,0.445l-0.375,0.426l-0.4,0.475l-0.213,0.256l-0.188,0.234l-0.117,0.215l-0.117,0.188l-0.07,0.188l-0.047,0.191v0.42
				l0.021,0.215l0.07,0.209l0.094,0.213l0.117,0.189l0.141,0.164l0.145,0.189l0.186,0.141l0.188,0.096l0.238,0.117l0.234,0.07
				l0.232,0.047l0.264,0.023l0.258-0.023l0.236-0.047l0.258-0.07l0.211-0.094l0.141-0.094l0.189-0.121l0.188-0.139l0.191-0.166
				l0.422-0.377l0.188-0.188l0.189-0.162l0.211-0.264l0.191-0.211l0.373-0.447l0.166-0.234l0.188-0.24l0.164-0.254l0.215-0.287
				l0.258-0.424l0.258-0.445l0.262-0.449l0.209-0.469l0.238-0.471l0.188-0.496l0.188-0.496l0.166-0.518l0.162-0.52l0.143-0.516
				l0.117-0.566l0.117-0.543l0.096-0.541l0.096-0.589l0.07-0.592l0.047-0.587v-0.33l0.021-0.212v-2.333l-0.021-0.188v-0.332
				l-0.117-0.986l-0.141-0.992l-0.168-0.967l-0.234-0.964l-0.262-0.968l-0.326-0.917l-0.354-0.922l-0.398-0.917l-0.357-0.73
				l-0.375-0.708l-0.422-0.706l-0.426-0.708l-0.447-0.681l-0.496-0.66l-0.541-0.659l-0.516-0.637l-0.566-0.638l-0.588-0.589
				l-0.611-0.611l-0.611-0.564l-0.639-0.521l-0.684-0.543l-0.658-0.494l-0.707-0.497l-0.609-0.373l-0.66-0.402l-0.658-0.355
				l-0.635-0.351l-0.684-0.329l-0.684-0.306l-0.705-0.285l-0.707-0.281l-0.707-0.261l-0.707-0.211l-0.729-0.212l-0.73-0.213
				l-0.752-0.167l-0.73-0.138l-0.732-0.117l-0.752-0.098l-0.705-0.093l-0.752-0.071l-0.732-0.046l-0.73-0.024l-0.729-0.022H454.378z
				"/>
		</g>
	</g>
	<g>
		<path d="M8.009,36.064V18.343h1.3v16.496h9.198v1.225H8.009z"/>
		<path d="M30.781,30.115h-9.547c0.025,1.45,0.5,2.799,1.3,3.75c0.7,0.825,1.674,1.324,3.024,1.324c1.1,0,2.05-0.4,2.725-1.1
			c0.45-0.475,0.8-1.024,0.95-1.774h1.3c-0.175,1.075-0.7,1.949-1.4,2.625c-0.9,0.899-2.149,1.449-3.574,1.449
			c-1.799,0-3.074-0.75-3.974-1.774c-1.025-1.2-1.6-2.849-1.6-4.749c0-1.575,0.25-3.125,1.225-4.449
			c1.05-1.425,2.499-2.174,4.249-2.174c3.374,0,5.349,2.899,5.349,6.048C30.807,29.59,30.781,29.815,30.781,30.115z M25.458,24.417
			c-2.575,0-4.199,2.074-4.199,4.549h8.273C29.482,26.591,28.007,24.417,25.458,24.417z"/>
		<path d="M43.156,36.064v-8.173c0-2.175-0.95-3.474-3.224-3.474c-3.074,0-4.149,2.699-4.149,5.398v6.249h-1.25V18.019h1.25v7.848
			c0.7-1.6,2.475-2.625,4.224-2.625c2.874,0,4.399,1.774,4.399,4.574v8.248H43.156z"/>
		<path d="M54.332,24.642c-3.125,0-3.974,2.799-3.974,5.424v5.999h-1.25V23.567h1.1l0.15,2.524c0.55-1.725,2.225-2.649,3.974-2.649
			c0.4,0,0.825,0,1.225,0.075v1.25C55.157,24.667,54.732,24.642,54.332,24.642z"/>
		<path d="M66.456,34.889c-0.9,1-2.399,1.5-4.049,1.5c-1.7,0-3.149-0.525-4.099-1.6c-0.7-0.8-1-1.5-1.05-2.524h1.275
			c0.075,0.75,0.4,1.399,0.925,1.924c0.725,0.7,1.75,1,2.949,1c1.3,0,2.324-0.3,2.949-0.925c0.45-0.45,0.675-0.875,0.675-1.6
			c0-1.125-0.8-2.074-2.299-2.274l-2.424-0.325c-1.025-0.125-2.125-0.45-2.825-1.25c-0.45-0.525-0.7-1.175-0.7-1.975
			c0-1,0.425-1.825,1.075-2.424c0.9-0.825,2.125-1.175,3.424-1.175c1.5,0,2.924,0.475,3.774,1.475c0.575,0.675,0.925,1.5,0.95,2.299
			h-1.25c-0.05-0.4-0.225-1.025-0.625-1.5c-0.575-0.675-1.549-1.1-2.849-1.1c-0.975,0-1.7,0.175-2.25,0.575
			c-0.625,0.45-0.975,1.05-0.975,1.725c0,1.05,0.525,1.85,2.424,2.1l2.375,0.325c2.349,0.325,3.449,1.924,3.449,3.449
			C67.306,33.515,67.006,34.264,66.456,34.889z"/>
		<path d="M74.907,36.239c-2.324,0-3.224-1.475-3.224-3.649v-7.873h-2.5v-1.15h2.5v-3.449l1.25-0.3v3.749h3.874v1.15h-3.874v7.823
			c0,1.475,0.4,2.524,2.074,2.524c0.675,0,1.3-0.1,1.975-0.225v1.1C76.282,36.089,75.607,36.239,74.907,36.239z"/>
		<path d="M88.831,36.039l-0.15-2.274c-0.7,1.6-2.474,2.599-4.224,2.599c-2.875,0-4.399-1.774-4.399-4.574v-8.248h1.25v8.173
			c0,2.175,0.95,3.424,3.224,3.424c3.074,0,4.149-2.649,4.149-5.349v-6.249h1.25v12.497H88.831z"/>
		<path d="M103.506,36.064v-8.173c0-2.175-0.95-3.474-3.224-3.474c-3.074,0-4.149,2.699-4.149,5.398v6.249h-1.25V18.019h1.25v7.848
			c0.7-1.6,2.475-2.625,4.224-2.625c2.874,0,4.399,1.774,4.399,4.574v8.248H103.506z"/>
		<path d="M111.882,36.214c-1.6,0-2.5-0.825-2.5-2.649V18.019h1.25v15.496c0,0.85,0.25,1.5,1.3,1.5c0.5,0,0.725,0,1.075-0.05v1.1
			C112.732,36.139,112.407,36.214,111.882,36.214z"/>
		<path d="M126.256,18.993c-1.575,0-2.375,0.825-2.375,2.424v2.149h3.924v1.15h-3.924v11.347h-1.25V24.717h-2.5v-1.15h2.5v-2.199
			c0-1.899,1.175-3.499,3.524-3.499c0.725,0,1.3,0.05,1.899,0.15v1.125C127.556,19.068,126.981,18.993,126.256,18.993z"/>
		<path d="M138.855,36.039l-0.15-2.274c-0.7,1.6-2.474,2.599-4.224,2.599c-2.875,0-4.399-1.774-4.399-4.574v-8.248h1.25v8.173
			c0,2.175,0.95,3.424,3.224,3.424c3.074,0,4.149-2.649,4.149-5.349v-6.249h1.25v12.497H138.855z M131.907,20.493v-1.575h1.5v1.575
			H131.907z M136.506,20.493v-1.575h1.524v1.575H136.506z"/>
		<path d="M150.131,24.642c-3.125,0-3.974,2.799-3.974,5.424v5.999h-1.25V23.567h1.1l0.15,2.524c0.55-1.725,2.225-2.649,3.974-2.649
			c0.4,0,0.825,0,1.225,0.075v1.25C150.956,24.667,150.531,24.642,150.131,24.642z"/>
		<path d="M171.83,36.064l-5.874-10.123l-4.599,5.199v4.924h-1.325V18.343h1.325v10.922l9.748-10.922h1.6l-5.874,6.624l6.474,11.097
			H171.83z"/>
		<path d="M183.806,34.889c-0.875,0.875-2.1,1.5-3.649,1.5c-1.549,0-2.774-0.625-3.649-1.5c-1.3-1.3-1.775-2.949-1.775-5.074
			s0.475-3.774,1.775-5.074c0.875-0.875,2.1-1.5,3.649-1.5c1.55,0,2.774,0.625,3.649,1.5c1.299,1.3,1.774,2.949,1.774,5.074
			S185.105,33.589,183.806,34.889z M182.906,25.566c-0.65-0.675-1.55-1.1-2.75-1.1s-2.1,0.425-2.749,1.1
			c-1.125,1.175-1.4,2.625-1.4,4.249s0.275,3.074,1.4,4.249c0.649,0.675,1.549,1.1,2.749,1.1s2.1-0.425,2.75-1.1
			c1.125-1.175,1.399-2.625,1.399-4.249S184.03,26.741,182.906,25.566z"/>
		<path d="M205.378,36.064v-8.173c0-2.175-0.8-3.474-2.974-3.474c-0.95,0-1.65,0.325-2.225,0.85
			c-0.975,0.925-1.475,2.225-1.475,3.724v7.073h-1.275v-8.173c0-2.175-0.825-3.474-2.999-3.474c-0.95,0-1.675,0.325-2.225,0.85
			c-1.125,1.05-1.5,2.774-1.5,4.549v6.249h-1.25V23.567h1.1l0.15,2.149c0.65-1.424,2-2.474,3.799-2.474
			c2.175,0,3.449,1.075,3.949,2.699c0.65-1.55,1.975-2.699,4.024-2.699c2.924,0,4.149,1.899,4.149,4.574v8.248H205.378z"/>
		<path d="M227.253,36.064v-8.173c0-2.175-0.8-3.474-2.974-3.474c-0.95,0-1.65,0.325-2.225,0.85
			c-0.975,0.925-1.475,2.225-1.475,3.724v7.073h-1.275v-8.173c0-2.175-0.825-3.474-2.999-3.474c-0.95,0-1.675,0.325-2.225,0.85
			c-1.125,1.05-1.5,2.774-1.5,4.549v6.249h-1.25V23.567h1.1l0.15,2.149c0.65-1.424,2-2.474,3.799-2.474
			c2.175,0,3.449,1.075,3.949,2.699c0.65-1.55,1.975-2.699,4.024-2.699c2.924,0,4.149,1.899,4.149,4.574v8.248H227.253z"/>
		<path d="M241.729,36.039l-0.15-2.274c-0.7,1.6-2.474,2.599-4.224,2.599c-2.875,0-4.399-1.774-4.399-4.574v-8.248h1.25v8.173
			c0,2.175,0.95,3.424,3.224,3.424c3.074,0,4.149-2.649,4.149-5.349v-6.249h1.25v12.497H241.729z"/>
		<path d="M256.405,36.064v-8.173c0-2.175-0.95-3.424-3.224-3.424c-3.074,0-4.149,2.649-4.149,5.349v6.249h-1.25V23.567h1.1
			l0.15,2.274c0.7-1.574,2.474-2.599,4.224-2.599c2.874,0,4.399,1.774,4.399,4.574v8.248H256.405z"/>
		<path d="M262.257,20.093v-1.75h1.75v1.75H262.257z M262.481,36.064V23.567h1.325v12.497H262.481z"/>
		<path d="M277.804,36.064l-4.399-6.673l-3.274,3.574v3.099h-1.274V18.019h1.274v13.146l7.023-7.598h1.575l-4.424,4.824l5.024,7.673
			H277.804z"/>
		<path d="M291.879,36.139c-1.55,0-1.975-1.125-1.975-2.45c-0.675,1.775-2.574,2.699-4.499,2.699c-2.424,0-4.299-1.449-4.299-3.849
			c0-2.225,1.725-3.549,4.199-3.724l4.599-0.325v-1.225c0-2.075-1.4-2.849-3.299-2.849c-1.975,0-3.474,0.899-3.599,2.749h-1.25
			c0.175-2.524,2.149-3.924,4.849-3.924c1.7,0,3.549,0.575,4.224,2.299c0.3,0.775,0.325,1.575,0.325,2.399v5.699
			c0,0.85,0.125,1.35,0.975,1.35c0.15,0,0.225,0,0.35-0.025v1.1C292.179,36.114,292.179,36.139,291.879,36.139z M289.905,29.641
			l-4.474,0.275c-1.85,0.125-3.049,1.1-3.049,2.625c0,1.799,1.35,2.699,3.125,2.699c3.149,0,4.399-2.549,4.399-4.949V29.641z"/>
		<path d="M299.88,36.239c-2.324,0-3.224-1.475-3.224-3.649v-7.873h-2.499v-1.15h2.499v-3.449l1.25-0.3v3.749h3.874v1.15h-3.874
			v7.823c0,1.475,0.4,2.524,2.074,2.524c0.675,0,1.3-0.1,1.975-0.225v1.1C301.255,36.089,300.581,36.239,299.88,36.239z"/>
		<path d="M305.182,20.093v-1.75h1.75v1.75H305.182z M305.406,36.064V23.567h1.325v12.497H305.406z"/>
		<path d="M319.78,34.889c-0.875,0.875-2.1,1.5-3.649,1.5c-1.549,0-2.774-0.625-3.648-1.5c-1.3-1.3-1.775-2.949-1.775-5.074
			s0.475-3.774,1.775-5.074c0.874-0.875,2.1-1.5,3.648-1.5c1.55,0,2.774,0.625,3.649,1.5c1.3,1.3,1.774,2.949,1.774,5.074
			S321.08,33.589,319.78,34.889z M318.88,25.566c-0.65-0.675-1.551-1.1-2.75-1.1s-2.1,0.425-2.749,1.1
			c-1.125,1.175-1.399,2.625-1.399,4.249s0.274,3.074,1.399,4.249c0.649,0.675,1.55,1.1,2.749,1.1s2.1-0.425,2.75-1.1
			c1.124-1.175,1.398-2.625,1.398-4.249S320.004,26.741,318.88,25.566z"/>
		<path d="M334.054,36.064v-8.173c0-2.175-0.95-3.424-3.225-3.424c-3.074,0-4.148,2.649-4.148,5.349v6.249h-1.25V23.567h1.1
			l0.15,2.274c0.699-1.574,2.475-2.599,4.224-2.599c2.874,0,4.399,1.774,4.399,4.574v8.248H334.054z"/>
		<path d="M348.08,34.889c-0.9,1-2.4,1.5-4.049,1.5c-1.7,0-3.15-0.525-4.1-1.6c-0.699-0.8-1-1.5-1.05-2.524h1.274
			c0.075,0.75,0.4,1.399,0.926,1.924c0.725,0.7,1.749,1,2.949,1c1.299,0,2.324-0.3,2.949-0.925c0.449-0.45,0.674-0.875,0.674-1.6
			c0-1.125-0.799-2.074-2.299-2.274l-2.424-0.325c-1.025-0.125-2.125-0.45-2.825-1.25c-0.45-0.525-0.7-1.175-0.7-1.975
			c0-1,0.426-1.825,1.075-2.424c0.899-0.825,2.124-1.175,3.425-1.175c1.499,0,2.924,0.475,3.773,1.475
			c0.574,0.675,0.925,1.5,0.949,2.299h-1.249c-0.05-0.4-0.226-1.025-0.625-1.5c-0.575-0.675-1.55-1.1-2.849-1.1
			c-0.975,0-1.7,0.175-2.25,0.575c-0.625,0.45-0.975,1.05-0.975,1.725c0,1.05,0.525,1.85,2.424,2.1l2.375,0.325
			c2.35,0.325,3.449,1.924,3.449,3.449C348.929,33.515,348.628,34.264,348.08,34.889z"/>
		<path d="M361.429,36.064v-8.173c0-2.175-0.95-3.424-3.225-3.424c-3.074,0-4.148,2.649-4.148,5.349v6.249h-1.25V23.567h1.1
			l0.15,2.274c0.699-1.574,2.475-2.599,4.224-2.599c2.874,0,4.399,1.774,4.399,4.574v8.248H361.429z"/>
		<path d="M377.103,30.115h-9.547c0.024,1.45,0.5,2.799,1.299,3.75c0.7,0.825,1.675,1.324,3.024,1.324c1.101,0,2.05-0.4,2.725-1.1
			c0.45-0.475,0.8-1.024,0.95-1.774h1.299c-0.175,1.075-0.699,1.949-1.399,2.625c-0.899,0.899-2.149,1.449-3.574,1.449
			c-1.8,0-3.074-0.75-3.974-1.774c-1.025-1.2-1.6-2.849-1.6-4.749c0-1.575,0.25-3.125,1.225-4.449
			c1.05-1.425,2.499-2.174,4.249-2.174c3.374,0,5.349,2.899,5.349,6.048C377.128,29.59,377.103,29.815,377.103,30.115z
			 M371.78,24.417c-2.575,0-4.199,2.074-4.199,4.549h8.272C375.804,26.591,374.33,24.417,371.78,24.417z"/>
		<path d="M384.58,36.239c-2.324,0-3.225-1.475-3.225-3.649v-7.873h-2.5v-1.15h2.5v-3.449l1.25-0.3v3.749h3.874v1.15h-3.874v7.823
			c0,1.475,0.4,2.524,2.074,2.524c0.675,0,1.3-0.1,1.975-0.225v1.1C385.955,36.089,385.279,36.239,384.58,36.239z"/>
		<path d="M389.031,36.064v-1.399l7.998-9.923h-7.998v-1.175h9.348v1.375l-7.998,9.922h8.072v1.2H389.031z"/>
		<path d="M411.753,30.115h-9.549c0.025,1.45,0.5,2.799,1.301,3.75c0.699,0.825,1.674,1.324,3.023,1.324c1.1,0,2.05-0.4,2.725-1.1
			c0.449-0.475,0.8-1.024,0.949-1.774h1.301c-0.176,1.075-0.701,1.949-1.4,2.625c-0.9,0.899-2.149,1.449-3.574,1.449
			c-1.799,0-3.074-0.75-3.975-1.774c-1.023-1.2-1.6-2.849-1.6-4.749c0-1.575,0.25-3.125,1.226-4.449
			c1.05-1.425,2.499-2.174,4.249-2.174c3.374,0,5.349,2.899,5.349,6.048C411.778,29.59,411.753,29.815,411.753,30.115z
			 M406.429,24.417c-2.574,0-4.199,2.074-4.199,4.549h8.273C410.453,26.591,408.978,24.417,406.429,24.417z"/>
	</g>
	<g>
		<path d="M78.456,54.776h-4.849v7.273h-1.3V44.329h6.148c3.399,0,5.899,1.649,5.899,5.224S81.855,54.776,78.456,54.776z
			 M78.456,45.579h-4.849v7.948h4.849c2.6,0,4.549-1.2,4.549-3.975S81.055,45.579,78.456,45.579z"/>
		<path d="M92.756,50.627c-3.125,0-3.974,2.799-3.974,5.424v5.998h-1.25V49.552h1.1l0.15,2.524c0.55-1.725,2.225-2.649,3.974-2.649
			c0.4,0,0.825,0,1.225,0.075v1.25C93.581,50.652,93.156,50.627,92.756,50.627z"/>
		<path d="M104.605,60.875c-0.875,0.875-2.1,1.5-3.649,1.5c-1.549,0-2.774-0.625-3.649-1.5c-1.3-1.3-1.775-2.949-1.775-5.073
			c0-2.125,0.475-3.774,1.775-5.074c0.875-0.875,2.1-1.5,3.649-1.5c1.55,0,2.774,0.625,3.649,1.5c1.299,1.3,1.774,2.949,1.774,5.074
			C106.38,57.925,105.905,59.575,104.605,60.875z M103.706,51.552c-0.65-0.675-1.55-1.101-2.75-1.101s-2.1,0.426-2.749,1.101
			c-1.125,1.175-1.4,2.624-1.4,4.249c0,1.624,0.275,3.074,1.4,4.248c0.649,0.676,1.549,1.101,2.749,1.101s2.1-0.425,2.75-1.101
			c1.125-1.174,1.399-2.624,1.399-4.248C105.105,54.176,104.83,52.727,103.706,51.552z"/>
		<path d="M114.582,44.978c-1.575,0-2.375,0.825-2.375,2.425v2.149h3.924v1.149h-3.924v11.348h-1.25V50.702h-2.5v-1.149h2.5v-2.199
			c0-1.899,1.175-3.499,3.524-3.499c0.725,0,1.3,0.05,1.899,0.149v1.125C115.881,45.053,115.306,44.978,114.582,44.978z"/>
		<path d="M116.758,62.049V59.8h2.199v2.249H116.758z"/>
		<path d="M138.33,60.299c-1.05,1.025-2.6,1.75-4.474,1.75h-5.874V44.329h5.874c1.875,0,3.424,0.725,4.474,1.75
			c1.949,1.874,2.149,4.623,2.149,7.098S140.279,58.425,138.33,60.299z M137.38,46.928c-0.9-0.85-2.2-1.325-3.524-1.325h-4.574
			v15.172h4.574c1.325,0,2.625-0.476,3.524-1.325c1.649-1.6,1.774-4.148,1.774-6.273C139.155,51.052,139.03,48.502,137.38,46.928z"
			/>
		<path d="M149.631,50.627c-3.125,0-3.974,2.799-3.974,5.424v5.998h-1.25V49.552h1.1l0.15,2.524c0.55-1.725,2.225-2.649,3.974-2.649
			c0.4,0,0.825,0,1.225,0.075v1.25C150.456,50.652,150.031,50.627,149.631,50.627z"/>
		<path d="M151.282,62.049V59.8h2.2v2.249H151.282z"/>
		<path d="M157.557,55.076v-1.149h7.073v1.149H157.557z"/>
		<path d="M169.207,62.049V44.329h1.325v17.721H169.207z"/>
		<path d="M184.33,62.049v-8.173c0-2.175-0.95-3.425-3.224-3.425c-3.074,0-4.149,2.649-4.149,5.35v6.248h-1.25V49.552h1.1
			l0.15,2.274c0.7-1.574,2.474-2.6,4.224-2.6c2.874,0,4.399,1.775,4.399,4.574v8.248H184.33z"/>
		<path d="M199.705,66.249c-1.075,1.1-2.949,1.475-4.949,1.475c-1.899,0-3.599-0.375-4.649-1.45c-0.55-0.574-0.875-1.3-0.875-2.249
			c0-1.2,0.7-2.375,1.875-2.925c-0.875-0.249-1.575-1.174-1.575-2.049c0-1.075,0.55-1.825,1.5-2.375
			c-0.775-0.749-1.25-1.774-1.25-3.074c0-2.699,2.049-4.374,4.674-4.374c1.1,0,2.1,0.301,2.924,0.851
			c0.325-1.075,1.399-1.7,2.524-1.7c0.15,0,0.325,0.05,0.475,0.05v1.075c-0.15,0-0.325-0.05-0.475-0.05c-0.9,0-1.55,0.5-1.725,1.35
			c0.625,0.725,1,1.675,1,2.799c0,2.699-2.099,4.324-4.724,4.324c-0.925,0-1.774-0.2-2.5-0.575c-0.65,0.25-1.25,0.775-1.25,1.55
			c0,0.6,0.375,0.975,0.875,1.175c0.45,0.175,1.2,0.2,1.675,0.2h2.724c1.6,0,2.875,0.399,3.674,1.225c0.6,0.6,1,1.324,1,2.425
			C200.654,64.899,200.254,65.673,199.705,66.249z M198.805,62.375c-0.575-0.601-1.549-0.925-3.024-0.925h-3.299
			c-1.05,0.25-2.074,1.1-2.074,2.574c0,0.649,0.275,1.199,0.675,1.574c0.899,0.85,2.449,1,3.699,1c1.25,0,3.024-0.15,3.974-1.1
			c0.375-0.375,0.65-0.925,0.65-1.574C199.405,63.224,199.18,62.774,198.805,62.375z M194.456,50.352
			c-1.95,0-3.449,1.25-3.449,3.249c0,2,1.5,3.199,3.449,3.199c1.949,0,3.474-1.199,3.474-3.199
			C197.93,51.602,196.405,50.352,194.456,50.352z"/>
		<path d="M202.957,62.049V59.8h2.199v2.249H202.957z"/>
		<path d="M219.681,62.375c-1.7,0-3.449-0.7-4.674-1.925c-1.899-1.925-2.074-4.749-2.074-7.273s0.175-5.323,2.074-7.248
			c1.225-1.225,2.975-1.925,4.674-1.925c3.524,0,6.023,2.475,6.298,5.749h-1.35c-0.225-2.624-2.15-4.474-4.949-4.474
			c-1.575,0-2.774,0.55-3.724,1.524c-1.6,1.649-1.675,4.249-1.675,6.373c0,2.125,0.1,4.749,1.7,6.398
			c0.975,1,2.224,1.524,3.699,1.524c2.799,0,4.724-1.849,4.949-4.474h1.35C225.704,59.9,223.205,62.375,219.681,62.375z"/>
		<path d="M238.154,62.049v-8.173c0-2.175-0.95-3.475-3.224-3.475c-3.074,0-4.149,2.699-4.149,5.399v6.248h-1.25V44.003h1.25v7.849
			c0.7-1.6,2.474-2.625,4.224-2.625c2.874,0,4.399,1.775,4.399,4.574v8.248H238.154z"/>
		<path d="M249.33,50.627c-3.125,0-3.974,2.799-3.974,5.424v5.998h-1.25V49.552h1.1l0.15,2.524c0.55-1.725,2.225-2.649,3.974-2.649
			c0.4,0,0.825,0,1.225,0.075v1.25C250.155,50.652,249.73,50.627,249.33,50.627z"/>
		<path d="M253.531,46.079v-1.75h1.75v1.75H253.531z M253.756,62.049V49.552h1.325v12.497H253.756z"/>
		<path d="M268.204,60.875c-0.9,1-2.399,1.5-4.049,1.5c-1.7,0-3.149-0.525-4.099-1.6c-0.7-0.8-1-1.5-1.05-2.524h1.275
			c0.075,0.75,0.4,1.399,0.925,1.924c0.725,0.7,1.75,1,2.949,1c1.299,0,2.324-0.3,2.949-0.925c0.45-0.449,0.675-0.875,0.675-1.6
			c0-1.124-0.8-2.074-2.299-2.274l-2.425-0.324c-1.024-0.125-2.124-0.45-2.824-1.25c-0.45-0.525-0.7-1.175-0.7-1.975
			c0-1,0.425-1.824,1.075-2.425c0.9-0.824,2.125-1.175,3.424-1.175c1.5,0,2.924,0.476,3.774,1.475c0.575,0.675,0.925,1.5,0.95,2.3
			h-1.25c-0.05-0.399-0.225-1.024-0.625-1.5c-0.575-0.675-1.549-1.1-2.849-1.1c-0.975,0-1.7,0.175-2.25,0.575
			c-0.625,0.45-0.975,1.05-0.975,1.725c0,1.05,0.525,1.85,2.424,2.1l2.375,0.325c2.349,0.324,3.449,1.924,3.449,3.448
			C269.054,59.5,268.753,60.25,268.204,60.875z"/>
		<path d="M276.655,62.224c-2.324,0-3.224-1.475-3.224-3.649v-7.873h-2.499v-1.149h2.499v-3.449l1.25-0.3v3.749h3.874v1.149h-3.874
			v7.823c0,1.475,0.4,2.524,2.074,2.524c0.675,0,1.3-0.1,1.975-0.225v1.1C278.03,62.075,277.355,62.224,276.655,62.224z"/>
		<path d="M281.956,46.079v-1.75h1.75v1.75H281.956z M282.181,62.049V49.552h1.325v12.497H282.181z"/>
		<path d="M298.303,62.125c-1.55,0-1.975-1.125-1.975-2.449c-0.675,1.774-2.574,2.699-4.499,2.699c-2.424,0-4.299-1.45-4.299-3.85
			c0-2.225,1.725-3.549,4.199-3.724l4.599-0.325v-1.225c0-2.074-1.4-2.85-3.299-2.85c-1.975,0-3.474,0.9-3.599,2.75h-1.25
			c0.175-2.524,2.149-3.925,4.849-3.925c1.7,0,3.549,0.575,4.224,2.3c0.3,0.774,0.325,1.574,0.325,2.399v5.698
			c0,0.851,0.125,1.35,0.975,1.35c0.15,0,0.225,0,0.35-0.024v1.1C298.603,62.099,298.603,62.125,298.303,62.125z M296.329,55.625
			l-4.474,0.275c-1.85,0.125-3.049,1.1-3.049,2.624c0,1.8,1.35,2.699,3.125,2.699c3.149,0,4.399-2.549,4.399-4.948V55.625z"/>
		<path d="M311.203,62.049v-8.173c0-2.175-0.95-3.425-3.224-3.425c-3.074,0-4.149,2.649-4.149,5.35v6.248h-1.25V49.552h1.1
			l0.15,2.274c0.7-1.574,2.475-2.6,4.224-2.6c2.874,0,4.398,1.775,4.398,4.574v8.248H311.203z"/>
		<path d="M336.902,62.049h-1.425l-4.674-15.521l-4.674,15.521h-1.375l-3.724-17.721h1.225l3.324,15.846l4.674-15.57h1.174
			l4.699,15.57l3.274-15.846h1.225L336.902,62.049z"/>
		<path d="M343.98,46.079v-1.75h1.75v1.75H343.98z M344.205,62.049V49.552h1.325v12.497H344.205z"/>
		<path d="M360.302,56.101h-9.547c0.024,1.449,0.5,2.799,1.299,3.749c0.7,0.824,1.675,1.324,3.024,1.324
			c1.101,0,2.05-0.399,2.725-1.1c0.45-0.475,0.8-1.024,0.95-1.774h1.299c-0.175,1.074-0.699,1.949-1.399,2.624
			c-0.899,0.9-2.149,1.45-3.574,1.45c-1.8,0-3.074-0.75-3.974-1.774c-1.025-1.2-1.6-2.85-1.6-4.749c0-1.575,0.25-3.124,1.225-4.449
			c1.05-1.425,2.499-2.175,4.249-2.175c3.374,0,5.349,2.899,5.349,6.049C360.328,55.576,360.302,55.801,360.302,56.101z
			 M354.979,50.402c-2.575,0-4.199,2.075-4.199,4.549h8.272C359.003,52.577,357.529,50.402,354.979,50.402z"/>
		<path d="M367.779,62.224c-2.324,0-3.225-1.475-3.225-3.649v-7.873h-2.498v-1.149h2.498v-3.449l1.25-0.3v3.749h3.875v1.149h-3.875
			v7.823c0,1.475,0.4,2.524,2.074,2.524c0.676,0,1.301-0.1,1.975-0.225v1.1C369.154,62.075,368.479,62.224,367.779,62.224z"/>
		<path d="M377.628,44.978c-1.574,0-2.374,0.825-2.374,2.425v2.149h3.925v1.149h-3.925v11.348h-1.249V50.702h-2.5v-1.149h2.5v-2.199
			c0-1.899,1.174-3.499,3.523-3.499c0.725,0,1.3,0.05,1.899,0.149v1.125C378.929,45.053,378.353,44.978,377.628,44.978z"/>
		<path d="M391.552,56.101h-9.547c0.024,1.449,0.5,2.799,1.299,3.749c0.7,0.824,1.675,1.324,3.024,1.324
			c1.101,0,2.05-0.399,2.725-1.1c0.45-0.475,0.8-1.024,0.95-1.774h1.299c-0.175,1.074-0.699,1.949-1.399,2.624
			c-0.899,0.9-2.149,1.45-3.574,1.45c-1.8,0-3.074-0.75-3.974-1.774c-1.025-1.2-1.6-2.85-1.6-4.749c0-1.575,0.25-3.124,1.225-4.449
			c1.05-1.425,2.499-2.175,4.249-2.175c3.374,0,5.349,2.899,5.349,6.049C391.578,55.576,391.552,55.801,391.552,56.101z
			 M386.229,50.402c-2.575,0-4.199,2.075-4.199,4.549h8.272C390.253,52.577,388.779,50.402,386.229,50.402z"/>
		<path d="M397.729,62.2c-1.6,0-2.499-0.825-2.499-2.649V44.003h1.249V59.5c0,0.851,0.25,1.5,1.3,1.5c0.5,0,0.725,0,1.074-0.05v1.1
			C398.579,62.125,398.253,62.2,397.729,62.2z"/>
		<path d="M410.703,62.049l-0.15-2.199c-0.674,1.55-2.475,2.524-4.148,2.524c-1.425,0-2.5-0.45-3.324-1.175
			c-1.4-1.225-2.05-3.225-2.05-5.374c0-2.05,0.625-4.049,1.95-5.299c0.824-0.8,1.949-1.3,3.398-1.3c1.775,0,3.5,1,4.174,2.425
			v-7.648h1.25v18.046H410.703z M409.003,51.427c-0.625-0.601-1.475-0.976-2.625-0.976c-1.175,0-2.024,0.426-2.674,1.101
			c-0.975,1.05-1.4,2.649-1.4,4.249c0,1.774,0.5,3.449,1.65,4.474c0.625,0.55,1.424,0.875,2.475,0.875c1.1,0,1.924-0.4,2.549-1
			c1.125-1.1,1.6-2.624,1.6-4.349C410.578,53.952,410.153,52.501,409.003,51.427z"/>
	</g>
</g>
</svg>
