<?xml version="1.0" encoding="utf-8"?>
<!-- Generator: Adobe Illustrator 15.0.0, SVG Export Plug-In . SVG Version: 6.00 Build 0)  -->
<!DOCTYPE svg PUBLIC "-//W3C//DTD SVG 1.1//EN" "http://www.w3.org/Graphics/SVG/1.1/DTD/svg11.dtd">
<svg version="1.1" id="Ebene_1" xmlns="http://www.w3.org/2000/svg" xmlns:xlink="http://www.w3.org/1999/xlink" x="0px" y="0px"
	 width="719.94px" height="721.911px" viewBox="0 0 719.94 721.911" enable-background="new 0 0 719.94 721.911"
	 xml:space="preserve">
<g>
	<path fill-rule="evenodd" clip-rule="evenodd" d="M347.971,0.05c2.24,0,4.479,0,6.719,0c0.672,0.795,4.607,0.795,5.28,0
		c12.319,0,24.638,0,36.957,0c18.51-1.071,19.8,15.078,22.078,30.237c22.706,13.471,46.931,20.609,67.675,33.598
		c39.882,24.969,71.364,66.514,90.232,112.311c8.632,20.95,15.193,43.255,17.759,70.554c0.342,3.635-0.104,8.354,0.96,11.519
		c1.523,4.531,14.336,11.908,19.198,15.358c47.297,33.567,92.071,69.988,105.111,136.309c0,6.24,0,12.479,0,18.719
		c-6.36,42.885-35.329,66.496-64.795,86.393c-29.999,20.258-66.2,36.017-104.151,47.036
		c-19.234,37.232-41.637,72.453-69.114,101.752c-27.101,28.897-61.313,53.615-112.311,58.075c-5.919,0-11.839,0-17.758,0
		c-51.697-4.33-86.528-28.295-113.75-57.596c-27.387-29.478-49.731-65.034-69.115-102.231
		c-38.096-11.05-74.396-26.874-104.631-47.036C34.696,495.296,6.126,470.863,0,427.695c0-5.279,0-10.559,0-15.839
		c4.231-38.802,26.297-66.403,47.996-90.232c17.92-19.679,41.931-39.481,65.754-54.715c3.311-2.117,8.949-4.832,10.079-7.199
		c1.091-2.284,0.912-7.117,1.44-11.039c11.608-86.225,49.65-148.028,110.391-184.785c15.111-9.145,33.902-17.269,50.396-26.398
		c5.14-2.845,14.219-6.909,15.839-10.079c3.533-6.913,1.836-17.768,6.239-22.078C315.636-2.013,336.691,2.053,347.971,0.05z
		 M303.335,124.36c2.679,22.115-4.055,43.74,0.96,61.915c4.38,15.875,21.222,28.104,33.117,36.477
		c3.988,2.807,10.515,7.828,14.879,8.639c15.515,2.884,22.314-3.725,30.237-9.119c12.866-8.761,30.026-21.139,33.598-36.957
		c2.085-9.237,0.479-20.503,0.479-30.717c0-10.693,0-21.115,0-31.678c-37.438,0-74.874,0-112.311,0
		C303.62,123.045,303.748,123.973,303.335,124.36z M351.811,334.103c-51.397,2.391-105.636,3.879-143.028,20.638
		c-5.353,2.399-13.584,5.493-14.879,8.64c-1.656,4.024,0,12.092,0,18.238c0,7.318,0.382,13.792-1.44,18.238
		c-15.994-1.297-38.893-7.536-51.835,0.96c-9.728,28.146,10.069,47.166,38.877,44.156c17.65,46.603,36.629,92.343,62.875,133.909
		c12.314,19.503,25.515,38.943,43.196,55.195c16.575,15.235,38.274,30.283,66.235,32.157c39.214,2.63,62.985-14.509,82.073-33.597
		c49.857-49.858,79.693-117.501,107.512-187.665c27.938,3.295,45.164-12.857,39.356-41.756c-11.048-10.861-37.14-5.675-54.235-3.84
		c0-12.319,0-24.638,0-36.957C485.068,340.22,420.697,330.898,351.811,334.103z"/>
	<path fill-rule="evenodd" clip-rule="evenodd" fill="#FFFFFF" d="M354.69,0.05c1.76,0,3.52,0,5.28,0
		C359.298,0.846,355.363,0.846,354.69,0.05z"/>
</g>
</svg>
