<?xml version="1.0" encoding="UTF-8" standalone="no"?>
<svg
   height="720"
   width="720"
   fill="#000000"
   version="1.1"
   x="0px"
   y="0px"
   viewBox="0 0 120 120"
   enable-background="new 0 0 50 50"
   xml:space="preserve"
   id="svg20"
   xmlns="http://www.w3.org/2000/svg"
   xmlns:svg="http://www.w3.org/2000/svg"><defs
     id="defs24" /><g
     id="g18"
     transform="translate(-10.12479,0.46666667)"><g
       id="g276"
       transform="matrix(3.9232604,0,0,3.9232604,-27.945566,-3.7294368)"><path
         d="M 32.92,3.71 C 30.81,2.15 28.04,1.2 25,1.2 c -3.16,0 -5.88,0.97 -7.92,2.51 2.26,-0.16 5.3,-0.22 7.92,-0.22 2.62,0 5.66,0.06 7.92,0.22 z"
         id="path6" /><path
         d="m 36.96,19.76 c -1.25,1.04 -2.69,1.27 -3.71,1.27 -2.6852,0 -4.8448,-1.225 -6.59,-3.35 -0.6996,-0.2331 -2.3252,-0.3241 -3.33,0 -1.7136,2.0864 -3.8359,3.35 -6.59,3.35 -1.0099,0 -2.44,-0.23 -3.7,-1.2599 -0.39,2.38 0.65,5.38 2.79,4.75 1.63,3.86 5.12,6.53 9.17,6.53 4.05,0 7.53,-2.67 9.17,-6.53 2.08,0.6199 3.18,-2.3901 2.79,-4.7601 z"
         id="path8" /><path
         d="m 18.9623,19.1462 c 1.3306,-0.4321 2.4468,-1.4501 3.3215,-2.5434 0.6568,-0.8218 4.7569,-0.8382 5.4268,0 0.8743,1.0929 1.9908,2.1113 3.3215,2.5434 2.7068,0.8827 6.0153,0.5557 6.9153,-4.4592 C 38.6819,10.594 37.6685,7.9744 36.971,6.7473 36.6005,6.0935 35.9684,5.638 35.234,5.4811 c -3.0883,-0.6495 -17.3854,-0.6495 -20.4737,0 -0.7344,0.1569 -1.3665,0.6124 -1.737,1.2662 -0.6974,1.2271 -1.7109,3.8467 -0.9764,7.9397 0.9001,5.0149 4.2085,5.3419 6.9154,4.4592 z M 15.563,7.9689 c 0.2402,-0.9262 1.2648,0.2639 18.3734,-0.3657 0.2357,-0.0081 0.4388,0.1463 0.4957,0.3657 0.4978,2.168 0.4913,4.3443 0,6.4929 -0.0569,0.2275 -0.26,0.382 -0.4957,0.3738 -5.9565,-0.2275 -11.9211,-0.2275 -17.8859,0 -0.2275,0.0081 -0.4307,-0.1463 -0.4875,-0.3738 -0.4956,-2.1616 -0.4956,-4.3231 0,-6.4929 z"
         id="path16" /></g></g></svg>
