<?xml version="1.0" encoding="UTF-8" standalone="no"?>
<svg
   xmlns:dc="http://purl.org/dc/elements/1.1/"
   xmlns:cc="http://creativecommons.org/ns#"
   xmlns:rdf="http://www.w3.org/1999/02/22-rdf-syntax-ns#"
   xmlns:svg="http://www.w3.org/2000/svg"
   xmlns="http://www.w3.org/2000/svg"
   xmlns:sodipodi="http://sodipodi.sourceforge.net/DTD/sodipodi-0.dtd"
   xmlns:inkscape="http://www.inkscape.org/namespaces/inkscape"
   width="353.639984pt"
   height="70.391998pt"
   viewBox="0 0 353.639984 70.391998"
   version="1.1"
   id="svg2"
   inkscape:version="0.91 r13725"
   sodipodi:docname="tudo-logo.svg">
  <metadata
     id="metadata69">
    <rdf:RDF>
      <cc:Work
         rdf:about="">
        <dc:format>image/svg+xml</dc:format>
        <dc:type
           rdf:resource="http://purl.org/dc/dcmitype/StillImage" />
        <dc:title></dc:title>
      </cc:Work>
    </rdf:RDF>
  </metadata>
  <defs
     id="defs67" />
  <sodipodi:namedview
     pagecolor="#ffffff"
     bordercolor="#666666"
     borderopacity="1"
     objecttolerance="10"
     gridtolerance="10"
     guidetolerance="10"
     inkscape:pageopacity="0"
     inkscape:pageshadow="2"
     inkscape:window-width="698"
     inkscape:window-height="480"
     id="namedview65"
     showgrid="false"
     inkscape:zoom="0.67413192"
     inkscape:cx="221.02499"
     inkscape:cy="43.994999"
     inkscape:window-x="554"
     inkscape:window-y="182"
     inkscape:window-maximized="0"
     inkscape:current-layer="svg2" />
  <g
     id="surface467">
    <path
       style=" stroke:none;fill-rule:nonzero;fill:rgb(51.763916%,72.155762%,9.411621%);fill-opacity:1;"
       d="M 71.726562 22.992188 L 71.726562 49.234375 C 71.726562 52.980469 69.777344 54.703125 66.25 54.703125 L 56.65625 54.703125 C 53.132812 54.703125 51.183594 52.980469 51.183594 49.234375 L 51.183594 22.992188 L 23.070312 22.992188 L 23.070312 8 L 15.722656 8 L 15.722656 22.992188 L 8 22.992188 L 8 30.414062 L 15.722656 30.414062 L 15.722656 49.082031 C 15.722656 57.109375 21.117188 62.050781 28.542969 62.050781 L 32.367188 62.050781 L 32.515625 54.632812 L 28.542969 54.632812 C 25.023438 54.632812 23.070312 52.757812 23.070312 49.082031 L 23.070312 30.414062 L 43.835938 30.414062 L 43.835938 49.234375 C 43.835938 57.179688 49.382812 62.050781 56.65625 62.050781 L 66.25 62.050781 C 73.523438 62.050781 79.070312 57.179688 79.070312 49.234375 L 79.070312 22.992188 Z M 71.726562 22.992188 "
       id="path5" />
    <path
       style=" stroke:none;fill-rule:nonzero;fill:rgb(13.725281%,12.156677%,12.548828%);fill-opacity:1;"
       d="M 99.847656 35.992188 C 97.503906 35.992188 96.597656 34.503906 96.597656 32.316406 L 96.597656 24.386719 L 94.082031 24.386719 L 94.082031 23.226562 L 96.597656 23.226562 L 96.597656 19.75 L 97.855469 19.449219 L 97.855469 23.226562 L 101.761719 23.226562 L 101.761719 24.386719 L 97.855469 24.386719 L 97.855469 32.265625 C 97.855469 33.75 98.257812 34.8125 99.949219 34.8125 C 100.628906 34.8125 101.257812 34.707031 101.9375 34.582031 L 101.9375 35.691406 C 101.230469 35.839844 100.550781 35.992188 99.847656 35.992188 "
       id="path7" />
    <path
       style=" stroke:none;fill-rule:nonzero;fill:rgb(13.725281%,12.156677%,12.548828%);fill-opacity:1;"
       d="M 114.824219 29.824219 L 105.210938 29.824219 C 105.234375 31.285156 105.710938 32.640625 106.515625 33.597656 C 107.222656 34.433594 108.203125 34.933594 109.566406 34.933594 C 110.671875 34.933594 111.628906 34.53125 112.308594 33.824219 C 112.761719 33.347656 113.113281 32.792969 113.265625 32.039062 L 114.574219 32.039062 C 114.398438 33.121094 113.871094 34.003906 113.164062 34.683594 C 112.261719 35.585938 111 36.140625 109.566406 36.140625 C 107.753906 36.140625 106.46875 35.386719 105.5625 34.355469 C 104.527344 33.148438 103.949219 31.484375 103.949219 29.570312 C 103.949219 27.988281 104.199219 26.425781 105.183594 25.089844 C 106.242188 23.65625 107.703125 22.902344 109.464844 22.902344 C 112.863281 22.902344 114.851562 25.820312 114.851562 28.992188 C 114.851562 29.296875 114.824219 29.519531 114.824219 29.824219 M 109.464844 24.085938 C 106.871094 24.085938 105.234375 26.171875 105.234375 28.664062 L 113.566406 28.664062 C 113.519531 26.273438 112.03125 24.085938 109.464844 24.085938 "
       id="path9" />
    <path
       style=" stroke:none;fill-rule:nonzero;fill:rgb(13.725281%,12.156677%,12.548828%);fill-opacity:1;"
       d="M 122.984375 36.140625 C 121.421875 36.140625 120.164062 35.539062 119.28125 34.65625 C 117.972656 33.347656 117.519531 31.660156 117.519531 29.519531 C 117.519531 27.382812 117.972656 25.695312 119.28125 24.386719 C 120.164062 23.503906 121.421875 22.902344 122.984375 22.902344 C 125.601562 22.902344 127.539062 24.609375 127.84375 27.15625 L 126.535156 27.15625 C 126.253906 25.417969 124.898438 24.136719 122.984375 24.136719 C 121.773438 24.136719 120.84375 24.535156 120.1875 25.214844 C 119.054688 26.398438 118.804688 27.886719 118.804688 29.519531 C 118.804688 31.160156 119.054688 32.664062 120.1875 33.851562 C 120.84375 34.53125 121.773438 34.90625 122.984375 34.90625 C 124.921875 34.90625 126.253906 33.550781 126.558594 31.839844 L 127.894531 31.839844 C 127.566406 34.28125 125.625 36.140625 122.984375 36.140625 "
       id="path11" />
    <path
       style=" stroke:none;fill-rule:nonzero;fill:rgb(13.725281%,12.156677%,12.548828%);fill-opacity:1;"
       d="M 140 35.816406 L 140 27.582031 C 140 25.394531 139.046875 24.085938 136.753906 24.085938 C 133.65625 24.085938 132.574219 26.800781 132.574219 29.519531 L 132.574219 35.816406 L 131.316406 35.816406 L 131.316406 17.636719 L 132.574219 17.636719 L 132.574219 25.542969 C 133.277344 23.929688 135.066406 22.902344 136.828125 22.902344 C 139.722656 22.902344 141.261719 24.6875 141.261719 27.507812 L 141.261719 35.816406 Z M 140 35.816406 "
       id="path13" />
    <path
       style=" stroke:none;fill-rule:nonzero;fill:rgb(13.725281%,12.156677%,12.548828%);fill-opacity:1;"
       d="M 154.679688 35.816406 L 154.679688 27.582031 C 154.679688 25.394531 153.722656 24.136719 151.429688 24.136719 C 148.335938 24.136719 147.253906 26.800781 147.253906 29.519531 L 147.253906 35.816406 L 145.992188 35.816406 L 145.992188 23.226562 L 147.101562 23.226562 L 147.253906 25.515625 C 147.957031 23.929688 149.746094 22.902344 151.507812 22.902344 C 154.402344 22.902344 155.9375 24.6875 155.9375 27.507812 L 155.9375 35.816406 Z M 154.679688 35.816406 "
       id="path15" />
    <path
       style=" stroke:none;fill-rule:nonzero;fill:rgb(13.725281%,12.156677%,12.548828%);fill-opacity:1;"
       d="M 160.570312 17.96875 L 162.332031 17.96875 L 162.332031 19.726562 L 160.570312 19.726562 Z M 160.796875 23.226562 L 162.132812 23.226562 L 162.132812 35.816406 L 160.796875 35.816406 Z M 160.796875 23.226562 "
       id="path17" />
    <path
       style=" stroke:none;fill-rule:nonzero;fill:rgb(13.725281%,12.156677%,12.548828%);fill-opacity:1;"
       d="M 175.351562 34.632812 C 174.445312 35.640625 172.933594 36.140625 171.273438 36.140625 C 169.558594 36.140625 168.097656 35.613281 167.140625 34.53125 C 166.4375 33.726562 166.132812 33.023438 166.085938 31.988281 L 167.367188 31.988281 C 167.441406 32.746094 167.773438 33.398438 168.300781 33.929688 C 169.027344 34.632812 170.0625 34.933594 171.273438 34.933594 C 172.582031 34.933594 173.613281 34.632812 174.242188 34.003906 C 174.695312 33.550781 174.921875 33.121094 174.921875 32.390625 C 174.921875 31.257812 174.117188 30.300781 172.605469 30.101562 L 170.164062 29.773438 C 169.132812 29.648438 168.023438 29.320312 167.316406 28.515625 C 166.863281 27.988281 166.613281 27.332031 166.613281 26.523438 C 166.613281 25.515625 167.042969 24.6875 167.695312 24.085938 C 168.601562 23.25 169.835938 22.902344 171.144531 22.902344 C 172.65625 22.902344 174.089844 23.378906 174.945312 24.386719 C 175.523438 25.066406 175.878906 25.898438 175.90625 26.699219 L 174.644531 26.699219 C 174.597656 26.296875 174.417969 25.667969 174.015625 25.191406 C 173.4375 24.511719 172.453125 24.085938 171.144531 24.085938 C 170.164062 24.085938 169.433594 24.257812 168.878906 24.660156 C 168.25 25.113281 167.898438 25.71875 167.898438 26.398438 C 167.898438 27.457031 168.425781 28.261719 170.339844 28.515625 L 172.730469 28.84375 C 175.097656 29.167969 176.207031 30.78125 176.207031 32.316406 C 176.207031 33.25 175.90625 34.003906 175.351562 34.632812 "
       id="path19" />
    <path
       style=" stroke:none;fill-rule:nonzero;fill:rgb(13.725281%,12.156677%,12.548828%);fill-opacity:1;"
       d="M 184.488281 36.140625 C 182.929688 36.140625 181.671875 35.539062 180.789062 34.65625 C 179.480469 33.347656 179.023438 31.660156 179.023438 29.519531 C 179.023438 27.382812 179.480469 25.695312 180.789062 24.386719 C 181.671875 23.503906 182.929688 22.902344 184.488281 22.902344 C 187.109375 22.902344 189.046875 24.609375 189.347656 27.15625 L 188.039062 27.15625 C 187.761719 25.417969 186.402344 24.136719 184.488281 24.136719 C 183.28125 24.136719 182.347656 24.535156 181.691406 25.214844 C 180.5625 26.398438 180.308594 27.886719 180.308594 29.519531 C 180.308594 31.160156 180.5625 32.664062 181.691406 33.851562 C 182.347656 34.53125 183.28125 34.90625 184.488281 34.90625 C 186.425781 34.90625 187.761719 33.550781 188.0625 31.839844 L 189.398438 31.839844 C 189.070312 34.28125 187.132812 36.140625 184.488281 36.140625 "
       id="path21" />
    <path
       style=" stroke:none;fill-rule:nonzero;fill:rgb(13.725281%,12.156677%,12.548828%);fill-opacity:1;"
       d="M 201.507812 35.816406 L 201.507812 27.582031 C 201.507812 25.394531 200.550781 24.085938 198.257812 24.085938 C 195.160156 24.085938 194.082031 26.800781 194.082031 29.519531 L 194.082031 35.816406 L 192.820312 35.816406 L 192.820312 17.636719 L 194.082031 17.636719 L 194.082031 25.542969 C 194.785156 23.929688 196.570312 22.902344 198.332031 22.902344 C 201.230469 22.902344 202.765625 24.6875 202.765625 27.507812 L 202.765625 35.816406 Z M 201.507812 35.816406 "
       id="path23" />
    <path
       style=" stroke:none;fill-rule:nonzero;fill:rgb(13.725281%,12.156677%,12.548828%);fill-opacity:1;"
       d="M 217.292969 29.824219 L 207.675781 29.824219 C 207.699219 31.285156 208.179688 32.640625 208.984375 33.597656 C 209.691406 34.433594 210.671875 34.933594 212.03125 34.933594 C 213.136719 34.933594 214.097656 34.53125 214.777344 33.824219 C 215.226562 33.347656 215.582031 32.792969 215.734375 32.039062 L 217.042969 32.039062 C 216.863281 33.121094 216.335938 34.003906 215.632812 34.683594 C 214.722656 35.585938 213.464844 36.140625 212.03125 36.140625 C 210.214844 36.140625 208.933594 35.386719 208.027344 34.355469 C 206.996094 33.148438 206.414062 31.484375 206.414062 29.570312 C 206.414062 27.988281 206.667969 26.425781 207.648438 25.089844 C 208.707031 23.65625 210.167969 22.902344 211.929688 22.902344 C 215.328125 22.902344 217.316406 25.820312 217.316406 28.992188 C 217.316406 29.296875 217.292969 29.519531 217.292969 29.824219 M 211.929688 24.085938 C 209.335938 24.085938 207.699219 26.171875 207.699219 28.664062 L 216.035156 28.664062 C 215.984375 26.273438 214.496094 24.085938 211.929688 24.085938 "
       id="path25" />
    <path
       style=" stroke:none;fill-rule:nonzero;fill:rgb(13.725281%,12.156677%,12.548828%);fill-opacity:1;"
       d="M 235.066406 35.789062 L 234.914062 33.496094 C 234.210938 35.109375 232.425781 36.117188 230.660156 36.117188 C 227.765625 36.117188 226.230469 34.328125 226.230469 31.511719 L 226.230469 23.199219 L 227.488281 23.199219 L 227.488281 31.433594 C 227.488281 33.625 228.445312 34.882812 230.738281 34.882812 C 233.832031 34.882812 234.914062 32.214844 234.914062 29.496094 L 234.914062 23.199219 L 236.175781 23.199219 L 236.175781 35.789062 Z M 235.066406 35.789062 "
       id="path27" />
    <path
       style=" stroke:none;fill-rule:nonzero;fill:rgb(13.725281%,12.156677%,12.548828%);fill-opacity:1;"
       d="M 249.847656 35.816406 L 249.847656 27.582031 C 249.847656 25.394531 248.890625 24.136719 246.597656 24.136719 C 243.503906 24.136719 242.417969 26.800781 242.417969 29.519531 L 242.417969 35.816406 L 241.160156 35.816406 L 241.160156 23.226562 L 242.269531 23.226562 L 242.417969 25.515625 C 243.125 23.929688 244.914062 22.902344 246.675781 22.902344 C 249.570312 22.902344 251.105469 24.6875 251.105469 27.507812 L 251.105469 35.816406 Z M 249.847656 35.816406 "
       id="path29" />
    <path
       style=" stroke:none;fill-rule:nonzero;fill:rgb(13.725281%,12.156677%,12.548828%);fill-opacity:1;"
       d="M 255.738281 17.96875 L 257.5 17.96875 L 257.5 19.726562 L 255.738281 19.726562 Z M 255.964844 23.226562 L 257.296875 23.226562 L 257.296875 35.816406 L 255.964844 35.816406 Z M 255.964844 23.226562 "
       id="path31" />
    <path
       style=" stroke:none;fill-rule:nonzero;fill:rgb(13.725281%,12.156677%,12.548828%);fill-opacity:1;"
       d="M 266.515625 35.816406 L 265.230469 35.816406 L 260.246094 23.226562 L 261.679688 23.226562 L 265.910156 34.027344 L 269.960938 23.226562 L 271.300781 23.226562 Z M 266.515625 35.816406 "
       id="path33" />
    <path
       style=" stroke:none;fill-rule:nonzero;fill:rgb(13.725281%,12.156677%,12.548828%);fill-opacity:1;"
       d="M 283.808594 29.824219 L 274.191406 29.824219 C 274.214844 31.285156 274.695312 32.640625 275.5 33.597656 C 276.203125 34.433594 277.1875 34.933594 278.546875 34.933594 C 279.65625 34.933594 280.609375 34.53125 281.289062 33.824219 C 281.742188 33.347656 282.09375 32.792969 282.246094 32.039062 L 283.554688 32.039062 C 283.378906 33.121094 282.851562 34.003906 282.148438 34.683594 C 281.238281 35.585938 279.980469 36.140625 278.546875 36.140625 C 276.734375 36.140625 275.445312 35.386719 274.542969 34.355469 C 273.511719 33.148438 272.933594 31.484375 272.933594 29.570312 C 272.933594 27.988281 273.183594 26.425781 274.164062 25.089844 C 275.222656 23.65625 276.683594 22.902344 278.445312 22.902344 C 281.84375 22.902344 283.832031 25.820312 283.832031 28.992188 C 283.832031 29.296875 283.808594 29.519531 283.808594 29.824219 M 278.445312 24.085938 C 275.855469 24.085938 274.214844 26.171875 274.214844 28.664062 L 282.550781 28.664062 C 282.5 26.273438 281.011719 24.085938 278.445312 24.085938 "
       id="path35" />
    <path
       style=" stroke:none;fill-rule:nonzero;fill:rgb(13.725281%,12.156677%,12.548828%);fill-opacity:1;"
       d="M 292.847656 24.308594 C 289.695312 24.308594 288.84375 27.128906 288.84375 29.773438 L 288.84375 35.816406 L 287.585938 35.816406 L 287.585938 23.226562 L 288.691406 23.226562 L 288.84375 25.769531 C 289.394531 24.03125 291.082031 23.101562 292.847656 23.101562 C 293.246094 23.101562 293.675781 23.101562 294.078125 23.175781 L 294.078125 24.4375 C 293.675781 24.335938 293.246094 24.308594 292.847656 24.308594 "
       id="path37" />
    <path
       style=" stroke:none;fill-rule:nonzero;fill:rgb(13.725281%,12.156677%,12.548828%);fill-opacity:1;"
       d="M 305.054688 34.632812 C 304.152344 35.640625 302.640625 36.140625 300.976562 36.140625 C 299.265625 36.140625 297.804688 35.613281 296.847656 34.53125 C 296.140625 33.726562 295.84375 33.023438 295.792969 31.988281 L 297.074219 31.988281 C 297.148438 32.746094 297.476562 33.398438 298.007812 33.929688 C 298.734375 34.632812 299.769531 34.933594 300.976562 34.933594 C 302.289062 34.933594 303.320312 34.632812 303.945312 34.003906 C 304.402344 33.550781 304.628906 33.121094 304.628906 32.390625 C 304.628906 31.257812 303.824219 30.300781 302.308594 30.101562 L 299.867188 29.773438 C 298.835938 29.648438 297.726562 29.320312 297.023438 28.515625 C 296.574219 27.988281 296.320312 27.332031 296.320312 26.523438 C 296.320312 25.515625 296.746094 24.6875 297.402344 24.085938 C 298.308594 23.25 299.539062 22.902344 300.847656 22.902344 C 302.363281 22.902344 303.796875 23.378906 304.652344 24.386719 C 305.234375 25.066406 305.585938 25.898438 305.609375 26.699219 L 304.351562 26.699219 C 304.300781 26.296875 304.125 25.667969 303.722656 25.191406 C 303.140625 24.511719 302.160156 24.085938 300.847656 24.085938 C 299.867188 24.085938 299.140625 24.257812 298.585938 24.660156 C 297.957031 25.113281 297.601562 25.71875 297.601562 26.398438 C 297.601562 27.457031 298.132812 28.261719 300.042969 28.515625 L 302.4375 28.84375 C 304.804688 29.167969 305.910156 30.78125 305.910156 32.316406 C 305.910156 33.25 305.609375 34.003906 305.054688 34.632812 "
       id="path39" />
    <path
       style=" stroke:none;fill-rule:nonzero;fill:rgb(13.725281%,12.156677%,12.548828%);fill-opacity:1;"
       d="M 309.714844 17.96875 L 311.476562 17.96875 L 311.476562 19.726562 L 309.714844 19.726562 Z M 309.941406 23.226562 L 311.277344 23.226562 L 311.277344 35.816406 L 309.941406 35.816406 Z M 309.941406 23.226562 "
       id="path41" />
    <path
       style=" stroke:none;fill-rule:nonzero;fill:rgb(13.725281%,12.156677%,12.548828%);fill-opacity:1;"
       d="M 320.238281 35.992188 C 317.898438 35.992188 316.988281 34.503906 316.988281 32.316406 L 316.988281 24.386719 L 314.472656 24.386719 L 314.472656 23.226562 L 316.988281 23.226562 L 316.988281 19.75 L 318.246094 19.449219 L 318.246094 23.226562 L 322.148438 23.226562 L 322.148438 24.386719 L 318.246094 24.386719 L 318.246094 32.265625 C 318.246094 33.75 318.648438 34.8125 320.335938 34.8125 C 321.019531 34.8125 321.648438 34.707031 322.328125 34.582031 L 322.328125 35.691406 C 321.621094 35.839844 320.941406 35.992188 320.238281 35.992188 "
       id="path43" />
    <path
       style=" stroke:none;fill-rule:nonzero;fill:rgb(13.725281%,12.156677%,12.548828%);fill-opacity:1;"
       d="M 335.496094 35.894531 C 333.933594 35.894531 333.503906 34.757812 333.503906 33.425781 C 332.824219 35.210938 330.910156 36.140625 328.972656 36.140625 C 326.53125 36.140625 324.640625 34.683594 324.640625 32.265625 C 324.640625 30.027344 326.378906 28.691406 328.875 28.515625 L 333.503906 28.1875 L 333.503906 26.953125 C 333.503906 24.863281 332.09375 24.085938 330.183594 24.085938 C 328.195312 24.085938 326.683594 24.988281 326.554688 26.851562 L 325.296875 26.851562 C 325.476562 24.308594 327.464844 22.902344 330.183594 22.902344 C 331.894531 22.902344 333.757812 23.480469 334.4375 25.214844 C 334.738281 25.996094 334.765625 26.800781 334.765625 27.632812 L 334.765625 33.375 C 334.765625 34.230469 334.890625 34.730469 335.746094 34.730469 C 335.898438 34.730469 335.972656 34.730469 336.097656 34.707031 L 336.097656 35.816406 C 335.796875 35.863281 335.796875 35.894531 335.496094 35.894531 M 333.503906 29.347656 L 329 29.625 C 327.136719 29.746094 325.929688 30.726562 325.929688 32.265625 C 325.929688 34.078125 327.285156 34.984375 329.074219 34.984375 C 332.246094 34.984375 333.503906 32.417969 333.503906 30 Z M 327.164062 18.546875 L 328.671875 18.546875 L 328.671875 20.128906 L 327.164062 20.128906 Z M 331.792969 18.546875 L 333.328125 18.546875 L 333.328125 20.128906 L 331.792969 20.128906 Z M 331.792969 18.546875 "
       id="path45" />
    <path
       style=" stroke:none;fill-rule:nonzero;fill:rgb(13.725281%,12.156677%,12.548828%);fill-opacity:1;"
       d="M 343.546875 35.992188 C 341.207031 35.992188 340.300781 34.503906 340.300781 32.316406 L 340.300781 24.386719 L 337.78125 24.386719 L 337.78125 23.226562 L 340.300781 23.226562 L 340.300781 19.75 L 341.558594 19.449219 L 341.558594 23.226562 L 345.460938 23.226562 L 345.460938 24.386719 L 341.558594 24.386719 L 341.558594 32.265625 C 341.558594 33.75 341.960938 34.8125 343.648438 34.8125 C 344.328125 34.8125 344.957031 34.707031 345.636719 34.582031 L 345.636719 35.691406 C 344.933594 35.839844 344.253906 35.992188 343.546875 35.992188 "
       id="path47" />
    <path
       style=" stroke:none;fill-rule:nonzero;fill:rgb(13.725281%,12.156677%,12.548828%);fill-opacity:1;"
       d="M 104.578125 62.066406 L 104.429688 59.851562 C 103.746094 61.410156 101.9375 62.390625 100.25 62.390625 C 98.816406 62.390625 97.730469 61.941406 96.902344 61.210938 C 95.492188 59.976562 94.835938 57.960938 94.835938 55.796875 C 94.835938 53.734375 95.46875 51.71875 96.800781 50.460938 C 97.632812 49.65625 98.765625 49.148438 100.222656 49.148438 C 102.011719 49.148438 103.746094 50.15625 104.429688 51.59375 L 104.429688 43.890625 L 105.6875 43.890625 L 105.6875 62.066406 Z M 102.867188 51.367188 C 102.238281 50.761719 101.382812 50.382812 100.222656 50.382812 C 99.039062 50.382812 98.183594 50.8125 97.53125 51.492188 C 96.546875 52.546875 96.121094 54.160156 96.121094 55.769531 C 96.121094 57.5625 96.621094 59.246094 97.78125 60.277344 C 98.410156 60.832031 99.214844 61.160156 100.277344 61.160156 C 101.382812 61.160156 102.214844 60.757812 102.84375 60.152344 C 103.976562 59.046875 104.453125 57.511719 104.453125 55.769531 C 104.453125 53.90625 104.027344 52.449219 102.867188 51.367188 "
       id="path49" />
    <path
       style=" stroke:none;fill-rule:nonzero;fill:rgb(13.725281%,12.156677%,12.548828%);fill-opacity:1;"
       d="M 118.726562 60.882812 C 117.847656 61.761719 116.613281 62.390625 115.054688 62.390625 C 113.492188 62.390625 112.261719 61.761719 111.375 60.882812 C 110.066406 59.574219 109.589844 57.914062 109.589844 55.769531 C 109.589844 53.632812 110.066406 51.96875 111.375 50.660156 C 112.261719 49.777344 113.492188 49.148438 115.054688 49.148438 C 116.613281 49.148438 117.847656 49.777344 118.726562 50.660156 C 120.039062 51.96875 120.515625 53.632812 120.515625 55.769531 C 120.515625 57.914062 120.039062 59.574219 118.726562 60.882812 M 117.824219 51.492188 C 117.167969 50.8125 116.261719 50.382812 115.054688 50.382812 C 113.847656 50.382812 112.9375 50.8125 112.285156 51.492188 C 111.152344 52.675781 110.875 54.136719 110.875 55.769531 C 110.875 57.40625 111.152344 58.867188 112.285156 60.050781 C 112.9375 60.734375 113.847656 61.160156 115.054688 61.160156 C 116.261719 61.160156 117.167969 60.734375 117.824219 60.050781 C 118.957031 58.867188 119.230469 57.40625 119.230469 55.769531 C 119.230469 54.136719 118.957031 52.675781 117.824219 51.492188 "
       id="path51" />
    <path
       style=" stroke:none;fill-rule:nonzero;fill:rgb(13.725281%,12.156677%,12.548828%);fill-opacity:1;"
       d="M 129.679688 50.558594 C 126.53125 50.558594 125.675781 53.382812 125.675781 56.023438 L 125.675781 62.066406 L 124.417969 62.066406 L 124.417969 49.476562 L 125.523438 49.476562 L 125.675781 52.019531 C 126.230469 50.28125 127.917969 49.351562 129.679688 49.351562 C 130.082031 49.351562 130.511719 49.351562 130.914062 49.429688 L 130.914062 50.6875 C 130.511719 50.585938 130.082031 50.558594 129.679688 50.558594 "
       id="path53" />
    <path
       style=" stroke:none;fill-rule:nonzero;fill:rgb(13.725281%,12.156677%,12.548828%);fill-opacity:1;"
       d="M 138.132812 62.242188 C 135.792969 62.242188 134.886719 60.757812 134.886719 58.566406 L 134.886719 50.632812 L 132.367188 50.632812 L 132.367188 49.476562 L 134.886719 49.476562 L 134.886719 46.003906 L 136.144531 45.699219 L 136.144531 49.476562 L 140.046875 49.476562 L 140.046875 50.632812 L 136.144531 50.632812 L 136.144531 58.515625 C 136.144531 60 136.546875 61.058594 138.234375 61.058594 C 138.914062 61.058594 139.542969 60.960938 140.222656 60.832031 L 140.222656 61.941406 C 139.519531 62.089844 138.835938 62.242188 138.132812 62.242188 "
       id="path55" />
    <path
       style=" stroke:none;fill-rule:nonzero;fill:rgb(13.725281%,12.156677%,12.548828%);fill-opacity:1;"
       d="M 159.609375 62.066406 L 159.609375 53.832031 C 159.609375 51.640625 158.804688 50.335938 156.613281 50.335938 C 155.65625 50.335938 154.949219 50.660156 154.371094 51.191406 C 153.390625 52.121094 152.886719 53.429688 152.886719 54.941406 L 152.886719 62.066406 L 151.601562 62.066406 L 151.601562 53.832031 C 151.601562 51.640625 150.773438 50.335938 148.582031 50.335938 C 147.625 50.335938 146.894531 50.660156 146.339844 51.191406 C 145.207031 52.242188 144.828125 53.984375 144.828125 55.769531 L 144.828125 62.066406 L 143.570312 62.066406 L 143.570312 49.476562 L 144.679688 49.476562 L 144.828125 51.640625 C 145.484375 50.207031 146.84375 49.148438 148.65625 49.148438 C 150.847656 49.148438 152.132812 50.230469 152.636719 51.867188 C 153.289062 50.308594 154.625 49.148438 156.6875 49.148438 C 159.632812 49.148438 160.867188 51.0625 160.867188 53.757812 L 160.867188 62.066406 Z M 159.609375 62.066406 "
       id="path57" />
    <path
       style=" stroke:none;fill-rule:nonzero;fill:rgb(13.725281%,12.156677%,12.548828%);fill-opacity:1;"
       d="M 174.1875 62.039062 L 174.035156 59.75 C 173.328125 61.359375 171.542969 62.371094 169.78125 62.371094 C 166.882812 62.371094 165.347656 60.578125 165.347656 57.757812 L 165.347656 49.453125 L 166.609375 49.453125 L 166.609375 57.683594 C 166.609375 59.875 167.566406 61.132812 169.855469 61.132812 C 172.953125 61.132812 174.035156 58.464844 174.035156 55.746094 L 174.035156 49.453125 L 175.292969 49.453125 L 175.292969 62.039062 Z M 174.1875 62.039062 "
       id="path59" />
    <path
       style=" stroke:none;fill-rule:nonzero;fill:rgb(13.725281%,12.156677%,12.548828%);fill-opacity:1;"
       d="M 188.964844 62.066406 L 188.964844 53.832031 C 188.964844 51.640625 188.007812 50.382812 185.71875 50.382812 C 182.621094 50.382812 181.539062 53.054688 181.539062 55.769531 L 181.539062 62.066406 L 180.28125 62.066406 L 180.28125 49.476562 L 181.386719 49.476562 L 181.539062 51.769531 C 182.242188 50.183594 184.03125 49.148438 185.792969 49.148438 C 188.691406 49.148438 190.226562 50.9375 190.226562 53.757812 L 190.226562 62.066406 Z M 188.964844 62.066406 "
       id="path61" />
    <path
       style=" stroke:none;fill-rule:nonzero;fill:rgb(13.725281%,12.156677%,12.548828%);fill-opacity:1;"
       d="M 203.570312 62.066406 L 203.417969 59.851562 C 202.738281 61.410156 200.925781 62.390625 199.234375 62.390625 C 197.800781 62.390625 196.71875 61.941406 195.886719 61.210938 C 194.476562 59.976562 193.824219 57.960938 193.824219 55.796875 C 193.824219 53.734375 194.453125 51.71875 195.789062 50.460938 C 196.621094 49.65625 197.75 49.148438 199.210938 49.148438 C 201 49.148438 202.738281 50.15625 203.417969 51.59375 L 203.417969 43.890625 L 204.675781 43.890625 L 204.675781 62.066406 Z M 201.855469 51.367188 C 201.226562 50.761719 200.371094 50.382812 199.210938 50.382812 C 198.027344 50.382812 197.171875 50.8125 196.519531 51.492188 C 195.535156 52.546875 195.109375 54.160156 195.109375 55.769531 C 195.109375 57.5625 195.613281 59.246094 196.769531 60.277344 C 197.398438 60.832031 198.203125 61.160156 199.261719 61.160156 C 200.371094 61.160156 201.199219 60.757812 201.828125 60.152344 C 202.964844 59.046875 203.441406 57.511719 203.441406 55.769531 C 203.441406 53.90625 203.015625 52.449219 201.855469 51.367188 "
       id="path63" />
  </g>
</svg>
